<svg width="448" height="448" viewBox="0 0 448 448" fill="none" xmlns="http://www.w3.org/2000/svg">
<path fill-rule="evenodd" clip-rule="evenodd" d="M350 168C350.059 194.998 341.386 221.291 325.276 242.956L224 378L122.724 242.956C110.866 226.935 102.978 208.33 99.7077 188.669C96.4373 169.008 97.8779 148.851 103.911 129.855C109.944 110.858 120.398 93.564 134.414 79.3927C148.43 65.2214 165.607 54.5772 184.536 48.3345C203.464 42.0918 223.604 40.4287 243.3 43.4818C262.997 46.5348 281.688 54.217 297.838 65.8971C313.989 77.5773 327.138 92.9223 336.205 110.672C345.273 128.421 350.001 148.068 350 168ZM392 168C392 205.52 379.708 240.128 358.96 268.072L250.236 413L224 448L197.736 413L89.04 268.072C73.2112 246.72 62.6745 221.917 58.2956 195.701C53.9167 169.484 55.8206 142.603 63.8509 117.266C71.8812 91.9288 85.8086 68.8584 104.489 49.9505C123.169 31.0426 146.069 16.8368 171.307 8.50028C196.546 0.163757 223.402 -2.06555 249.669 1.99553C275.936 6.05662 300.865 16.2922 322.407 31.8612C343.95 47.4303 361.49 67.8885 373.588 91.5549C385.686 115.221 391.996 141.421 392 168Z" fill="#00D5AE"/>
<path d="M278.506 101H208.83L164.447 177H208.83L170.83 253L272.153 158H221.476L278.506 101Z" fill="#00D5AE"/>
</svg>
