<svg width="448" height="449" viewBox="0 0 448 449" fill="none" xmlns="http://www.w3.org/2000/svg">
<path d="M176.933 144.333C183.333 140.6 190.267 137.533 197.333 135.4V118.333C197.333 103.667 208.933 91.6667 223.6 91.2667C239.067 91.6667 250.667 103.667 250.667 118.333V135.4C257.733 137.667 264.667 140.6 271.067 144.333L249.733 172.6H198.267L176.933 144.333ZM317.333 225C317.333 231.667 316.667 237.667 315.467 243.667L281.733 233.267L265.867 184.467L287.2 156.333C292.933 161.667 298 167.667 302.4 174.333C312.933 173.4 323.067 175 332.133 179.533C345.867 186.6 355.2 200.067 357.333 215.4L317.333 220.2V225ZM130.667 225V220.333L90.6667 215.4C92.8001 200.067 102.133 186.6 115.867 179.533C124.879 174.981 135.113 173.439 145.067 175.133C149.467 168.333 154.533 162.067 160.533 156.6L182.133 184.333L166.267 233.267L132.533 243.667C131.333 237.667 130.667 231.667 130.667 225ZM200.533 192.6H247.467L262 237.4L224 265L186 237.4L200.533 192.6ZM172.4 252.333L214 282.467V317.8C206.4 317 199.067 315.267 192.267 312.733L175.867 349.533C168.903 346.445 162.804 341.692 158.108 335.694C153.411 329.696 150.261 322.635 148.933 315.133C147.067 305 148.667 294.867 153.2 285.8C147.2 278.867 142.267 271.133 138.533 262.6L172.4 252.333ZM275.6 252.333L309.467 262.6C305.733 271.133 300.8 278.867 294.8 285.8C299.333 294.867 300.933 305 299.2 315.133C297.821 322.634 294.636 329.686 289.92 335.68C285.204 341.673 279.099 346.428 272.133 349.533L255.867 312.733C248.8 315.267 241.733 317.533 234 318.333V282.467L275.6 252.333Z" fill="#FF8A00"/>
<path fill-rule="evenodd" clip-rule="evenodd" d="M331.5 28.2C331.82 28.4219 332.154 28.6224 332.5 28.8C367.503 48.1508 396.679 76.5297 416.992 110.983C437.306 145.436 448.013 184.704 448 224.7C448 348.4 347.7 448.7 224 448.7C201.006 448.584 178.169 444.907 156.3 437.8L150.9 436C139.031 432.059 127.523 427.107 116.5 421.2C116.3 421.1 116.125 420.975 115.95 420.85C115.775 420.725 115.6 420.6 115.4 420.5C80.4271 401.149 51.2776 372.781 30.9829 338.346C10.6882 303.912 -0.0102736 264.67 7.40286e-06 224.7C7.40286e-06 101 100.3 0.700001 224 0.700001C246.993 0.824467 269.83 4.50118 291.7 11.6L297.1 13.4C308.969 17.3411 320.477 22.2926 331.5 28.2ZM196.8 392.7C205.783 394.265 214.882 395.068 224 395.1C261.2 395.1 295.4 382.7 323.5 362.4L361.8 324.1C382 296.1 394.4 262 394.5 224.8C394.503 193.736 386.006 163.263 369.93 136.681C353.855 110.1 330.813 88.4237 303.3 74C297.47 70.9366 291.459 68.2316 285.3 65.9C283.87 65.3732 282.44 64.9031 281.053 64.447C280.597 64.297 280.145 64.1485 279.7 64C270.429 60.7483 260.893 58.3059 251.2 56.7C242.217 55.1397 233.118 54.3368 224 54.3C186.7 54.3 152.6 66.7 124.6 86.9L86.3 125.2C66 153.2 53.6 187.4 53.6 224.6C53.5912 255.465 61.9693 285.753 77.8389 312.226C93.7086 338.698 116.473 360.362 143.7 374.9C149.843 378.171 156.189 381.043 162.7 383.5C164.5 384.2 166.4 384.8 168.3 385.4C177.571 388.652 187.107 391.094 196.8 392.7Z" fill="#FF8A00"/>
</svg>
