<svg width="275" height="186" viewBox="0 0 275 186" fill="none" xmlns="http://www.w3.org/2000/svg">
<g clip-path="url(#clip0_32_248)">
<path d="M0 186H275C121.061 152.72 22.5115 182.356 0 186Z" fill="#F2F2F2"/>
<path d="M115.662 76.8877C115.248 76.4239 114.671 76.1406 114.053 76.0979C113.434 76.0553 112.824 76.2567 112.351 76.6592C112.256 76.7426 112.168 76.8337 112.088 76.9316L104.272 74.1235L101.458 77.606L112.58 80.2899C113.009 80.5911 113.526 80.7409 114.05 80.7159C114.573 80.6909 115.074 80.4926 115.473 80.1519C115.699 79.9558 115.883 79.7171 116.017 79.4493C116.151 79.1815 116.23 78.8898 116.252 78.5911C116.273 78.2923 116.236 77.9922 116.142 77.708C116.048 77.4238 115.899 77.1609 115.703 76.9345C115.69 76.9187 115.676 76.9031 115.662 76.8877Z" fill="#A0616A"/>
<path d="M83.4235 165.558L87.6901 165.558L89.7199 149.027L83.4226 149.027L83.4235 165.558Z" fill="#A0616A"/>
<path d="M83.2732 170.029L96.3941 170.028V169.862C96.394 168.501 95.8559 167.197 94.8982 166.235C93.9405 165.273 92.6415 164.732 91.2871 164.732H91.2868L88.8901 162.906L84.4183 164.732L83.2729 164.732L83.2732 170.029Z" fill="#2F2E41"/>
<path d="M53.5168 157.675L57.007 160.14L68.1344 147.79L62.9826 144.152L53.5168 157.675Z" fill="#A0616A"/>
<path d="M50.8335 161.245L61.5669 168.825L61.6623 168.689C62.4413 167.576 62.7483 166.198 62.5158 164.858C62.2832 163.517 61.5302 162.325 60.4223 161.542L60.422 161.542L59.5073 158.663L54.8034 157.574L53.8664 156.912L50.8335 161.245Z" fill="#2F2E41"/>
<path d="M66.4235 83.3177L66.0689 84.0785C63.7386 89.0791 63.1427 94.6691 64.0483 100.115C64.1157 100.328 64.1028 100.558 64.0122 100.761C63.4506 101.423 64.3317 104.298 64.8368 105.903L65.2921 108.741C65.2921 108.741 64.5372 111.378 65.6838 111.184C66.8304 110.99 65.123 113.802 66.2167 114.507L69.0539 132.197L57.2168 151.793L61.6009 158.178L79.1374 135.5L79.3566 115.023L81.9871 131.537L82.2063 157.518L90.1821 156.666L89.8785 129.115L90.3169 96.6419L85.9328 81.5381L66.4235 83.3177Z" fill="#2F2E41"/>
<path d="M67.913 37.5208L79.0925 37.7409L81.2846 43.2454L85.6687 44.5664L89.3952 53.8139L87.2031 83.0976L63.3097 85.2993L64.4057 82.8774C64.4057 82.8774 60.0216 83.0976 61.556 81.5563C63.0904 80.0151 66.0385 80.3566 64.5645 78.5345C63.0905 76.7124 62.8712 75.3913 62.8712 75.3913L62.2136 66.364L60.5696 47.0985L65.7209 43.0252L67.913 37.5208Z" fill="#6C63FF"/>
<path d="M56.5177 100.511C56.1711 99.995 56.0388 99.3634 56.1489 98.7507C56.259 98.138 56.6027 97.5926 57.107 97.2306C57.2106 97.1587 57.3201 97.0954 57.4341 97.0416L56.6351 88.7422L60.6851 86.8533L60.5559 98.3413C60.7415 98.8336 60.7597 99.3737 60.6076 99.8774C60.4554 100.381 60.1416 100.82 59.7149 101.126C59.4705 101.297 59.1948 101.419 58.9037 101.484C58.6125 101.548 58.3114 101.555 58.0178 101.502C57.7242 101.45 57.4436 101.34 57.1923 101.179C56.9409 101.018 56.7236 100.809 56.5527 100.563C56.5408 100.546 56.5291 100.529 56.5177 100.511Z" fill="#A0616A"/>
<path d="M62.6292 46.6249C62.6292 46.6249 56.1111 46.4977 55.889 58.5881C55.889 58.5881 47.9821 75.1507 52.8133 81.1169L55.9399 93.2698L61.4351 92.7542L61.8945 82.701C61.8945 82.701 69.5527 71.8864 67.8498 61.5077L62.6292 46.6249Z" fill="#6C63FF"/>
<path d="M85.2302 44.3463C85.2302 44.3463 88.1895 46.8784 93.7793 54.6947C93.7793 54.6947 102.109 66.8045 101.232 71.6484L104.959 72.7493L105.836 81.116L96.7385 78.8041C96.7385 78.8041 85.011 69.0062 85.4494 64.1623C85.8878 59.3184 85.2302 44.3463 85.2302 44.3463Z" fill="#6C63FF"/>
<path d="M73.7737 35.748C78.0091 35.748 81.4425 32.2994 81.4425 28.0453C81.4425 23.7912 78.0091 20.3425 73.7737 20.3425C69.5384 20.3425 66.105 23.7912 66.105 28.0453C66.105 32.2994 69.5384 35.748 73.7737 35.748Z" fill="#A0616A"/>
<path d="M71.5354 27.8439C71.542 27.758 71.5507 27.6722 71.5617 27.5863C71.5725 27.6731 71.5635 27.7611 71.5354 27.8439Z" fill="#2F2E41"/>
<path d="M81.5948 19.0368C81.3646 18.1319 80.49 17.3635 79.5649 17.4735C78.9884 17.5418 78.4974 17.9139 77.9669 18.1473C76.4785 18.8012 72.7717 17.4097 71.1649 17.6321C69.5559 17.8567 68.0127 19.4441 68.5191 20.9942C64.3514 21.4398 62.5632 25.1347 64.0342 29.1628C65.1846 32.313 69.556 35.4312 72.8901 35.6492C72.4802 33.7073 70.1062 31.5341 69.6963 29.5943C69.5489 29.0744 69.5094 28.5296 69.5801 27.9936C69.6196 27.7264 69.7377 27.4771 69.9194 27.2777C70.101 27.0784 70.3378 26.9382 70.5994 26.8751C70.8193 26.8513 71.0401 26.9111 71.2182 27.0428C71.3963 27.1744 71.5189 27.3684 71.5617 27.5863C71.6435 26.9897 71.8721 26.423 72.2268 25.9374C72.5815 25.4518 73.0511 25.0627 73.5931 24.8053C74.1352 24.5478 74.7325 24.4301 75.3312 24.4628C75.9299 24.4955 76.5111 24.6776 77.0221 24.9926L75.959 23.5394C77.4066 24.2191 79.0173 24.4697 80.6018 24.2616C80.6404 24.1258 80.653 23.9838 80.639 23.8433C80.6271 23.6982 80.5781 23.5588 80.4967 23.4384C80.4152 23.318 80.3042 23.2209 80.1743 23.1563C80.4279 23.2249 80.6651 23.3443 80.8716 23.5074C81.0781 23.6704 81.2495 23.8739 81.3756 24.1053C82.2938 23.895 83.1024 23.3516 83.6465 22.5795C84.1551 21.7956 81.8249 19.9417 81.5948 19.0368Z" fill="#2F2E41"/>
<path d="M121.02 72.1039H109.037C108.426 72.1039 107.84 72.3478 107.407 72.7818C106.975 73.2159 106.733 73.8047 106.733 74.4185V76.0167C106.733 76.6305 106.975 77.2193 107.407 77.6534C107.84 78.0874 108.426 78.3313 109.037 78.3313H113.617L111.962 94.1602C111.671 94.3412 111.424 94.5853 111.238 94.8745C111.053 95.1637 110.935 95.4908 110.892 95.8319L109.37 107.771C109.317 108.184 109.377 108.605 109.542 108.987C109.708 109.37 109.973 109.701 110.31 109.944L105.226 158.549L97.9534 169.103H38.8185C38.574 169.103 38.3396 169.201 38.1667 169.374C37.9938 169.548 37.8967 169.783 37.8967 170.029C37.8967 170.274 37.9938 170.51 38.1667 170.684C38.3396 170.857 38.574 170.955 38.8185 170.955H43.4253C42.3992 171.727 41.6409 172.803 41.2579 174.032C40.8749 175.261 40.8867 176.579 41.2916 177.801C41.6965 179.023 42.4739 180.085 43.5137 180.839C44.5535 181.592 45.8029 181.997 47.0849 181.997C48.3668 181.997 49.6162 181.592 50.656 180.839C51.6958 180.085 52.4732 179.023 52.8781 177.801C53.283 176.579 53.2948 175.261 52.9118 174.032C52.5289 172.803 51.7706 171.727 50.7444 170.955H98.4365C98.5856 170.955 98.7324 170.918 98.8644 170.849C98.9964 170.779 99.1096 170.679 99.1945 170.556L105.196 161.846V169.794C103.673 170.017 102.29 170.811 101.324 172.015C100.358 173.218 99.881 174.744 99.9875 176.287C100.094 177.829 100.777 179.274 101.899 180.333C103.021 181.391 104.5 181.985 106.039 181.995C107.578 182.005 109.064 181.431 110.2 180.387C111.336 179.344 112.037 177.908 112.164 176.367C112.29 174.826 111.833 173.294 110.883 172.077C109.932 170.861 108.56 170.049 107.04 169.806V158.929L112.124 110.329C112.593 110.232 113.021 109.989 113.347 109.636C113.673 109.283 113.881 108.836 113.942 108.358L115.463 96.4196C115.532 95.8764 115.407 95.3262 115.11 94.8669C114.813 94.4077 114.363 94.0692 113.841 93.9116L115.471 78.3313H121.02C121.631 78.3313 122.217 78.0875 122.65 77.6534C123.082 77.2193 123.325 76.6305 123.325 76.0167V74.4185C123.325 73.8047 123.082 73.2159 122.65 72.7818C122.217 72.3478 121.631 72.1039 121.02 72.1039Z" fill="#6E6A9E"/>
<path d="M194.595 165.842C194.817 165.876 195.044 165.84 195.245 165.74C195.446 165.64 195.612 165.48 195.719 165.282C195.827 165.084 195.872 164.858 195.847 164.634C195.822 164.409 195.73 164.198 195.581 164.029C195.565 163.916 195.554 163.835 195.538 163.723C195.808 163.201 196.227 162.771 196.742 162.49C197.257 162.209 197.843 162.088 198.427 162.144C199.01 162.199 199.564 162.429 200.016 162.802C200.469 163.176 200.8 163.677 200.968 164.241C201.943 167.411 203.286 170.728 202.108 173.983C208.811 162.878 208.457 148.151 201.387 137.309C199.275 135.833 197.687 133.439 197.48 130.83C198.55 131.324 200.028 130.563 199.316 129.302C199.001 128.815 198.682 128.332 198.368 127.845C203.051 123.78 207.335 131.392 202.063 136.99C203.382 139.06 204.481 141.263 205.343 143.563C205.333 141.216 205.878 138.9 206.933 136.805C207.983 134.861 209.734 133.314 211.302 131.702C213.209 129.737 216.571 131.089 216.515 133.83C214.908 134.18 214.471 136.413 216.216 136.908C215.225 141.915 211.453 146.215 206.693 147.957C207.875 152.846 208.006 157.932 207.077 162.875C208.483 157.131 214.859 156.371 219.453 154.512C219.749 154.362 220.081 154.303 220.41 154.34C220.739 154.377 221.05 154.51 221.305 154.721C221.561 154.933 221.749 155.215 221.847 155.532C221.946 155.85 221.95 156.189 221.86 156.509C221.234 156.691 220.627 156.935 220.048 157.238C219.777 157.383 219.557 157.608 219.418 157.883C219.279 158.158 219.229 158.47 219.273 158.775C219.318 159.08 219.455 159.364 219.666 159.588C219.877 159.811 220.153 159.964 220.454 160.025C217.691 165.249 211.637 168.317 205.812 167.684C204.998 170.069 203.939 172.363 202.652 174.529L194.004 173.62C193.983 173.521 193.966 173.418 193.948 173.319C194.743 173.453 195.552 173.49 196.356 173.427C194.5 170.686 192.996 169.229 194.595 165.842Z" fill="#F2F2F2"/>
<path d="M142.442 173.26C142.671 172.708 142.129 171.957 141.232 171.582C140.335 171.206 139.422 171.349 139.193 171.9C138.965 172.451 139.507 173.202 140.404 173.577C141.301 173.953 142.214 173.811 142.442 173.26Z" fill="#E6E6E6"/>
<path d="M151.823 179.821C152.052 179.27 151.51 178.519 150.612 178.143C149.715 177.768 148.803 177.91 148.574 178.461C148.345 179.012 148.887 179.763 149.784 180.139C150.682 180.514 151.594 180.372 151.823 179.821Z" fill="#3F3D56"/>
<path d="M135.396 178.654C135.625 178.103 135.083 177.352 134.186 176.977C133.288 176.601 132.376 176.743 132.147 177.294C131.918 177.845 132.46 178.597 133.358 178.972C134.255 179.348 135.168 179.205 135.396 178.654Z" fill="#FF6584"/>
<path d="M129.279 179.079C129.588 178.632 129.555 178.072 129.205 177.828C128.856 177.584 128.322 177.749 128.013 178.196C127.703 178.643 127.736 179.203 128.086 179.447C128.436 179.691 128.97 179.526 129.279 179.079Z" fill="#E6E6E6"/>
<path d="M124.513 183.547C124.822 183.1 124.789 182.54 124.439 182.296C124.089 182.052 123.555 182.217 123.246 182.664C122.937 183.111 122.97 183.672 123.32 183.915C123.669 184.159 124.204 183.994 124.513 183.547Z" fill="#3F3D56"/>
<path d="M141.681 180.756C141.99 180.309 141.957 179.749 141.607 179.505C141.257 179.261 140.723 179.426 140.414 179.873C140.105 180.321 140.138 180.881 140.488 181.125C140.837 181.369 141.372 181.204 141.681 180.756Z" fill="#E6E6E6"/>
<path d="M138.187 175.916C138.496 175.469 138.463 174.909 138.113 174.665C137.763 174.421 137.229 174.586 136.92 175.033C136.611 175.48 136.644 176.041 136.994 176.285C137.344 176.528 137.878 176.364 138.187 175.916Z" fill="#FF6584"/>
<path d="M147.236 175.931C147.545 175.484 147.512 174.924 147.162 174.68C146.813 174.436 146.279 174.601 145.97 175.048C145.66 175.495 145.693 176.055 146.043 176.299C146.393 176.543 146.927 176.378 147.236 175.931Z" fill="#3F3D56"/>
<path d="M84.6776 173.26C84.9063 172.708 84.3643 171.957 83.4671 171.582C82.5699 171.206 81.6573 171.349 81.4286 171.9C81.2 172.451 81.742 173.202 82.6392 173.577C83.5363 173.953 84.449 173.811 84.6776 173.26Z" fill="#E6E6E6"/>
<path d="M94.0583 179.821C94.2869 179.27 93.7449 178.519 92.8477 178.143C91.9505 177.768 91.0379 177.91 90.8092 178.461C90.5806 179.012 91.1226 179.763 92.0198 180.139C92.917 180.514 93.8296 180.372 94.0583 179.821Z" fill="#3F3D56"/>
<path d="M77.6315 178.655C77.8601 178.103 77.3182 177.352 76.421 176.977C75.5238 176.601 74.6111 176.744 74.3825 177.295C74.1539 177.846 74.6958 178.597 75.593 178.972C76.4902 179.348 77.4029 179.206 77.6315 178.655Z" fill="#FF6584"/>
<path d="M71.5144 179.079C71.8235 178.632 71.7905 178.072 71.4408 177.828C71.0911 177.584 70.557 177.749 70.2479 178.196C69.9388 178.643 69.9717 179.203 70.3215 179.447C70.6712 179.691 71.2053 179.526 71.5144 179.079Z" fill="#E6E6E6"/>
<path d="M66.748 183.547C67.0571 183.1 67.0242 182.54 66.6745 182.296C66.3247 182.052 65.7906 182.217 65.4815 182.664C65.1724 183.111 65.2054 183.672 65.5551 183.915C65.9048 184.159 66.4389 183.994 66.748 183.547Z" fill="#3F3D56"/>
<path d="M83.9157 180.756C84.2248 180.309 84.1919 179.749 83.8422 179.505C83.4925 179.261 82.9584 179.426 82.6493 179.873C82.3402 180.321 82.3731 180.881 82.7228 181.125C83.0726 181.369 83.6066 181.204 83.9157 180.756Z" fill="#E6E6E6"/>
<path d="M80.4221 175.916C80.7312 175.469 80.6983 174.909 80.3485 174.665C79.9988 174.421 79.4647 174.586 79.1556 175.033C78.8465 175.48 78.8795 176.041 79.2292 176.285C79.5789 176.528 80.113 176.364 80.4221 175.916Z" fill="#FF6584"/>
<path d="M89.4714 175.931C89.7805 175.484 89.7476 174.924 89.3978 174.68C89.0481 174.436 88.514 174.601 88.2049 175.048C87.8958 175.495 87.9288 176.055 88.2785 176.299C88.6282 176.543 89.1623 176.378 89.4714 175.931Z" fill="#3F3D56"/>
<path d="M178.029 184.739C178.332 184.225 177.899 183.405 177.063 182.908C176.226 182.41 175.303 182.423 175 182.937C174.697 183.451 175.13 184.27 175.966 184.768C176.802 185.265 177.726 185.252 178.029 184.739Z" fill="#E6E6E6"/>
<path d="M169.65 176.928C169.953 176.414 169.521 175.594 168.684 175.097C167.848 174.599 166.925 174.613 166.622 175.126C166.319 175.64 166.751 176.46 167.588 176.957C168.424 177.455 169.347 177.442 169.65 176.928Z" fill="#3F3D56"/>
<path d="M185.755 180.383C186.058 179.869 185.625 179.049 184.789 178.552C183.953 178.055 183.029 178.068 182.726 178.581C182.423 179.095 182.856 179.915 183.692 180.412C184.528 180.91 185.452 180.897 185.755 180.383Z" fill="#FF6584"/>
<path d="M189.974 180.069C190.342 179.67 190.387 179.11 190.075 178.82C189.762 178.529 189.211 178.618 188.842 179.017C188.474 179.417 188.429 179.976 188.742 180.267C189.054 180.557 189.606 180.469 189.974 180.069Z" fill="#E6E6E6"/>
<path d="M195.314 176.312C195.682 175.913 195.727 175.353 195.415 175.063C195.102 174.772 194.55 174.861 194.182 175.26C193.814 175.66 193.769 176.219 194.081 176.51C194.394 176.8 194.946 176.712 195.314 176.312Z" fill="#3F3D56"/>
<path d="M177.926 176.672C178.294 176.272 178.34 175.713 178.027 175.422C177.715 175.132 177.163 175.22 176.795 175.62C176.427 176.02 176.381 176.579 176.694 176.869C177.006 177.16 177.558 177.071 177.926 176.672Z" fill="#E6E6E6"/>
<path d="M180.714 181.954C181.083 181.554 181.128 180.995 180.815 180.704C180.503 180.414 179.951 180.502 179.583 180.902C179.215 181.302 179.17 181.861 179.482 182.151C179.795 182.442 180.346 182.353 180.714 181.954Z" fill="#FF6584"/>
<path d="M171.755 180.672C172.124 180.273 172.169 179.713 171.856 179.423C171.544 179.133 170.992 179.221 170.624 179.621C170.256 180.02 170.211 180.579 170.523 180.87C170.836 181.16 171.387 181.072 171.755 180.672Z" fill="#3F3D56"/>
<path d="M199.566 27.5797C207.148 27.5797 213.295 21.4057 213.295 13.7898C213.295 6.17392 207.148 0 199.566 0C191.984 0 185.837 6.17392 185.837 13.7898C185.837 21.4057 191.984 27.5797 199.566 27.5797Z" fill="#F2F2F2"/>
<path d="M230.293 7.26008C229.501 4.59 227.259 2.84437 224.549 2.46219C224.518 2.45961 224.487 2.45961 224.457 2.46219C224.42 2.45057 224.382 2.44193 224.343 2.43635C219.747 1.83727 214.636 3.2937 211.196 6.46475L211.158 6.49953C210.286 7.30962 209.223 7.88229 208.069 8.1631C206.914 8.44391 205.708 8.42352 204.563 8.10388C203.934 7.92943 203.281 7.85727 202.63 7.89015C201.238 7.98255 199.909 8.50375 198.823 9.3827C197.737 10.2616 196.948 11.4556 196.562 12.8017C196.52 12.9661 196.532 13.1399 196.596 13.2972C196.66 13.4545 196.772 13.5868 196.917 13.6745C197.331 14.0297 197.822 14.2811 198.352 14.4078C199.488 14.6506 200.635 14.8727 201.781 15.0741C204.023 15.4666 206.277 15.7851 208.543 16.0295C210.039 16.1896 211.539 16.317 213.042 16.4117C216.147 16.608 219.269 16.6545 222.379 16.5563C223.922 16.5047 225.403 16.453 226.812 15.7713C227.838 15.2642 228.715 14.497 229.357 13.5454C229.96 12.63 230.357 11.5929 230.519 10.507C230.681 9.42109 230.603 8.31278 230.293 7.26008Z" fill="#F2F2F2"/>
<path d="M202.049 27.3504C202.023 26.7726 201.926 26.2002 201.761 25.6461C200.964 22.976 198.722 21.2304 196.012 20.8482C195.983 20.8456 195.954 20.8456 195.925 20.8482C195.886 20.8371 195.846 20.8285 195.807 20.8224C193.262 20.5094 190.681 20.7759 188.253 21.6022C186.168 22.2857 184.25 23.4034 182.625 24.8823C181.753 25.6933 180.69 26.2668 179.535 26.5481C178.381 26.8295 177.174 26.8094 176.029 26.4898C175.399 26.3154 174.746 26.2433 174.093 26.2762C172.701 26.3686 171.372 26.8898 170.286 27.7687C169.201 28.6477 168.411 29.8416 168.026 31.1877C167.986 31.3522 167.998 31.5251 168.062 31.6819C168.126 31.8386 168.237 31.9712 168.38 32.0605C168.794 32.4148 169.286 32.666 169.815 32.7939C170.956 33.0366 172.098 33.2587 173.25 33.4601C175.491 33.8526 177.743 34.1711 180.006 34.4156C184.602 34.9112 189.227 35.0872 193.848 34.9423C195.385 34.8907 196.871 34.8391 198.28 34.1573C199.305 33.65 200.18 32.8828 200.82 31.9314C201.721 30.5823 202.153 28.9718 202.049 27.3504Z" fill="#F2F2F2"/>
<path d="M199.566 27.5797C207.148 27.5797 213.295 21.4057 213.295 13.7898C213.295 6.17392 207.148 0 199.566 0C191.984 0 185.837 6.17392 185.837 13.7898C185.837 21.4057 191.984 27.5797 199.566 27.5797Z" fill="#F2F2F2"/>
<path d="M230.293 7.26008C229.501 4.59 227.259 2.84437 224.549 2.46219C224.518 2.45961 224.487 2.45961 224.457 2.46219C224.42 2.45057 224.382 2.44193 224.343 2.43635C219.747 1.83727 214.636 3.2937 211.196 6.46475L211.158 6.49953C210.286 7.30962 209.223 7.88229 208.069 8.1631C206.914 8.44391 205.708 8.42352 204.563 8.10388C203.934 7.92943 203.281 7.85727 202.63 7.89015C201.238 7.98255 199.909 8.50375 198.823 9.3827C197.737 10.2616 196.948 11.4556 196.562 12.8017C196.52 12.9661 196.532 13.1399 196.596 13.2972C196.66 13.4545 196.772 13.5868 196.917 13.6745C197.331 14.0297 197.822 14.2811 198.352 14.4078C199.488 14.6506 200.635 14.8727 201.781 15.0741C204.023 15.4666 206.277 15.7851 208.543 16.0295C210.039 16.1896 211.539 16.317 213.042 16.4117C216.147 16.608 219.269 16.6545 222.379 16.5563C223.922 16.5047 225.403 16.453 226.812 15.7713C227.838 15.2642 228.715 14.497 229.357 13.5454C229.96 12.63 230.357 11.5929 230.519 10.507C230.681 9.42109 230.603 8.31278 230.293 7.26008Z" fill="#E6E6E6"/>
<path d="M202.049 27.3504C202.023 26.7726 201.926 26.2002 201.761 25.6461C200.964 22.976 198.722 21.2304 196.012 20.8482C195.983 20.8456 195.954 20.8456 195.925 20.8482C195.886 20.8371 195.846 20.8285 195.807 20.8224C193.262 20.5094 190.681 20.7759 188.253 21.6022C186.168 22.2857 184.25 23.4034 182.625 24.8823C181.753 25.6933 180.69 26.2668 179.535 26.5481C178.381 26.8295 177.174 26.8094 176.029 26.4898C175.399 26.3154 174.746 26.2433 174.093 26.2762C172.701 26.3686 171.372 26.8898 170.286 27.7687C169.201 28.6477 168.411 29.8416 168.026 31.1877C167.986 31.3522 167.998 31.5251 168.062 31.6819C168.126 31.8386 168.237 31.9712 168.38 32.0605C168.794 32.4148 169.286 32.666 169.815 32.7939C170.956 33.0366 172.098 33.2587 173.25 33.4601C175.491 33.8526 177.743 34.1711 180.006 34.4156C184.602 34.9112 189.227 35.0872 193.848 34.9423C195.385 34.8907 196.871 34.8391 198.28 34.1573C199.305 33.65 200.18 32.8828 200.82 31.9314C201.721 30.5823 202.153 28.9718 202.049 27.3504Z" fill="#E6E6E6"/>
</g>
<defs>
<clipPath id="clip0_32_248">
<rect width="275" height="186" fill="white"/>
</clipPath>
</defs>
</svg>
