<svg width="512" height="512" viewBox="0 0 512 512" fill="none" xmlns="http://www.w3.org/2000/svg">
<path d="M202.267 351.333H298V338C298 308.533 321.867 284.667 351.333 284.667H361.2L335.867 172.133C334.516 166.241 331.211 160.979 326.491 157.203C321.771 153.427 315.912 151.358 309.867 151.333H258V178H309.867L328.533 261.333H328.4C314.113 265.639 301.313 273.85 291.443 285.04C281.572 296.23 275.023 309.954 272.533 324.667H202.267C199.063 315.581 192.683 307.96 184.304 303.206C175.924 298.453 166.109 296.888 156.667 298.8C140.933 301.867 128.267 314.8 125.333 330.533C124.239 336.318 124.434 342.273 125.905 347.973C127.376 353.674 130.086 358.979 133.842 363.512C137.599 368.046 142.309 371.694 147.637 374.198C152.965 376.703 158.779 378.001 164.667 378C182 378 196.667 366.8 202.267 351.333ZM164.667 351.333C157.333 351.333 151.333 345.333 151.333 338C151.333 330.667 157.333 324.667 164.667 324.667C172 324.667 178 330.667 178 338C178 345.333 172 351.333 164.667 351.333ZM351.333 298C329.2 298 311.333 315.867 311.333 338C311.333 360.133 329.2 378 351.333 378C373.467 378 391.333 360.133 391.333 338C391.333 315.867 373.467 298 351.333 298ZM351.333 351.333C344 351.333 338 345.333 338 338C338 330.667 344 324.667 351.333 324.667C358.667 324.667 364.667 330.667 364.667 338C364.667 345.333 358.667 351.333 351.333 351.333Z" fill="#2C9AFF"/>
<path d="M364.5 60.1C364.154 59.9224 363.82 59.7219 363.5 59.5C352.477 53.5926 340.969 48.6411 329.1 44.7L323.7 42.9C301.83 35.8012 278.993 32.1245 256 32C132.3 32 32 132.3 32 256C31.9897 295.97 42.6883 335.212 62.9829 369.646C83.2776 404.081 112.427 432.448 147.4 451.8C147.8 452 148.1 452.3 148.5 452.5C159.523 458.407 171.031 463.359 182.9 467.3L188.3 469.1C210.169 476.207 233.006 479.884 256 480C379.7 480 480 379.7 480 256C480.013 216.004 469.306 176.736 448.992 142.283C428.679 107.83 399.503 79.4508 364.5 60.1ZM256 426.4C246.882 426.368 237.783 425.565 228.8 424C219.107 422.394 209.571 419.952 200.3 416.7C198.4 416.1 196.5 415.5 194.7 414.8C188.189 412.343 181.843 409.471 175.7 406.2C148.473 391.662 125.709 369.998 109.839 343.526C93.9693 317.053 85.5912 286.765 85.6 255.9C85.6 218.7 98 184.5 118.3 156.5L355.5 393.7C327.4 414 293.2 426.4 256 426.4ZM393.8 355.4L156.6 118.2C184.6 98 218.7 85.6 256 85.6C265.118 85.6368 274.217 86.4397 283.2 88C292.893 89.6059 302.429 92.0483 311.7 95.3C313.5 95.9 315.4 96.5 317.3 97.2C323.459 99.5316 329.47 102.237 335.3 105.3C362.813 119.724 385.855 141.4 401.93 167.981C418.006 194.563 426.503 225.036 426.5 256.1C426.4 293.3 414 327.4 393.8 355.4Z" fill="#FF4343"/>
</svg>
